<svg xmlns="http://www.w3.org/2000/svg" width="900" height="560" viewBox="0 0 900 560">
<rect width="100%" height="100%" fill="#ffffff" />
<text x="24.0" y="34.0" font-family="Arial, sans-serif" font-size="20" font-weight="700" text-anchor="start" fill="#1f2937">H015 route-core vs full-flow runtime</text>
<text x="24.0" y="56.0" font-family="Arial, sans-serif" font-size="12" font-weight="400" text-anchor="start" fill="#1f2937">Full-flow includes conversion, DB DRC, GDS rendering, KLayout write, and filesystem IO.</text>
<text x="230.0" y="58.0" font-family="Arial, sans-serif" font-size="12" font-weight="700" text-anchor="start" fill="#1f2937">route core</text>
<text x="340.0" y="58.0" font-family="Arial, sans-serif" font-size="12" font-weight="700" text-anchor="start" fill="#1f2937">non-core full-flow</text>
<rect x="310.0" y="47.0" width="18.0" height="12.0" fill="#2563eb" rx="2" />
<rect x="460.0" y="47.0" width="18.0" height="12.0" fill="#f59e0b" rx="2" />
<text x="24.0" y="98.0" font-family="Arial, sans-serif" font-size="11" font-weight="400" text-anchor="start" fill="#1f2937">toy_example_gp</text>
<rect x="230.0" y="80.0" width="0.1" height="20.0" fill="#2563eb" rx="2" />
<rect x="230.1" y="80.0" width="10.1" height="20.0" fill="#f59e0b" rx="2" />
<text x="248.2" y="95.0" font-family="Arial, sans-serif" font-size="11" font-weight="400" text-anchor="start" fill="#1f2937">16.5s</text>
<text x="24.0" y="140.0" font-family="Arial, sans-serif" font-size="11" font-weight="400" text-anchor="start" fill="#1f2937">mrr_weight_bank_4x4</text>
<rect x="230.0" y="122.0" width="1.1" height="20.0" fill="#2563eb" rx="2" />
<rect x="231.1" y="122.0" width="13.5" height="20.0" fill="#f59e0b" rx="2" />
<text x="252.5" y="137.0" font-family="Arial, sans-serif" font-size="11" font-weight="400" text-anchor="start" fill="#1f2937">23.4s</text>
<text x="24.0" y="182.0" font-family="Arial, sans-serif" font-size="11" font-weight="400" text-anchor="start" fill="#1f2937">mrr_weight_bank_8x8</text>
<rect x="230.0" y="164.0" width="2.1" height="20.0" fill="#2563eb" rx="2" />
<rect x="232.1" y="164.0" width="21.6" height="20.0" fill="#f59e0b" rx="2" />
<text x="261.7" y="179.0" font-family="Arial, sans-serif" font-size="11" font-weight="400" text-anchor="start" fill="#1f2937">38.1s</text>
<text x="24.0" y="224.0" font-family="Arial, sans-serif" font-size="11" font-weight="400" text-anchor="start" fill="#1f2937">mrr_weight_bank_16x16</text>
<rect x="230.0" y="206.0" width="27.1" height="20.0" fill="#2563eb" rx="2" />
<rect x="257.1" y="206.0" width="65.7" height="20.0" fill="#f59e0b" rx="2" />
<text x="330.8" y="221.0" font-family="Arial, sans-serif" font-size="11" font-weight="400" text-anchor="start" fill="#1f2937">149.2s</text>
<text x="24.0" y="266.0" font-family="Arial, sans-serif" font-size="11" font-weight="400" text-anchor="start" fill="#1f2937">clements_8x8</text>
<rect x="230.0" y="248.0" width="1.0" height="20.0" fill="#2563eb" rx="2" />
<rect x="231.0" y="248.0" width="24.3" height="20.0" fill="#f59e0b" rx="2" />
<text x="263.3" y="263.0" font-family="Arial, sans-serif" font-size="11" font-weight="400" text-anchor="start" fill="#1f2937">40.7s</text>
<text x="24.0" y="308.0" font-family="Arial, sans-serif" font-size="11" font-weight="400" text-anchor="start" fill="#1f2937">clements_16x16</text>
<rect x="230.0" y="290.0" width="9.2" height="20.0" fill="#2563eb" rx="2" />
<rect x="239.2" y="290.0" width="53.8" height="20.0" fill="#f59e0b" rx="2" />
<text x="301.0" y="305.0" font-family="Arial, sans-serif" font-size="11" font-weight="400" text-anchor="start" fill="#1f2937">101.4s</text>
<text x="24.0" y="350.0" font-family="Arial, sans-serif" font-size="11" font-weight="400" text-anchor="start" fill="#1f2937">multiportmmi_8x8</text>
<rect x="230.0" y="332.0" width="19.0" height="20.0" fill="#2563eb" rx="2" />
<rect x="249.0" y="332.0" width="26.7" height="20.0" fill="#f59e0b" rx="2" />
<text x="283.8" y="347.0" font-family="Arial, sans-serif" font-size="11" font-weight="400" text-anchor="start" fill="#1f2937">73.6s</text>
<text x="24.0" y="392.0" font-family="Arial, sans-serif" font-size="11" font-weight="400" text-anchor="start" fill="#1f2937">multiportmmi_16x16</text>
<rect x="230.0" y="374.0" width="62.7" height="20.0" fill="#2563eb" rx="2" />
<rect x="292.7" y="374.0" width="66.7" height="20.0" fill="#f59e0b" rx="2" />
<text x="367.4" y="389.0" font-family="Arial, sans-serif" font-size="11" font-weight="400" text-anchor="start" fill="#1f2937">208.1s</text>
<text x="24.0" y="434.0" font-family="Arial, sans-serif" font-size="11" font-weight="400" text-anchor="start" fill="#1f2937">multiportmmi_32x32</text>
<rect x="230.0" y="416.0" width="381.1" height="20.0" fill="#2563eb" rx="2" />
<rect x="611.1" y="416.0" width="208.9" height="20.0" fill="#f59e0b" rx="2" />
<text x="828.0" y="431.0" font-family="Arial, sans-serif" font-size="11" font-weight="400" text-anchor="start" fill="#1f2937">949.0s</text>
<line x1="230" y1="464" x2="820" y2="464" stroke="#9ca3af" stroke-width="1" />
<line x1="230.0" y1="464" x2="230.0" y2="470" stroke="#9ca3af" />
<text x="230.0" y="486.0" font-family="Arial, sans-serif" font-size="10" font-weight="400" text-anchor="middle" fill="#1f2937">0s</text>
<line x1="385.4" y1="464" x2="385.4" y2="470" stroke="#9ca3af" />
<text x="385.4" y="486.0" font-family="Arial, sans-serif" font-size="10" font-weight="400" text-anchor="middle" fill="#1f2937">250s</text>
<line x1="540.9" y1="464" x2="540.9" y2="470" stroke="#9ca3af" />
<text x="540.9" y="486.0" font-family="Arial, sans-serif" font-size="10" font-weight="400" text-anchor="middle" fill="#1f2937">500s</text>
<line x1="696.3" y1="464" x2="696.3" y2="470" stroke="#9ca3af" />
<text x="696.3" y="486.0" font-family="Arial, sans-serif" font-size="10" font-weight="400" text-anchor="middle" fill="#1f2937">750s</text>
<line x1="851.7" y1="464" x2="851.7" y2="470" stroke="#9ca3af" />
<text x="851.7" y="486.0" font-family="Arial, sans-serif" font-size="10" font-weight="400" text-anchor="middle" fill="#1f2937">1000s</text>
</svg>
