<svg xmlns="http://www.w3.org/2000/svg" width="780" height="420" viewBox="0 0 780 420">
<rect width="100%" height="100%" fill="#ffffff" />
<text x="24.0" y="34.0" font-family="Arial, sans-serif" font-size="20" font-weight="700" text-anchor="start" fill="#1f2937">MRR marker reduction</text>
<text x="24.0" y="56.0" font-family="Arial, sans-serif" font-size="12" font-weight="400" text-anchor="start" fill="#1f2937">Route-geometry markers decrease under H011/H013/H015 general geometry fixes.</text>
<line x1="110" y1="336" x2="720" y2="336" stroke="#9ca3af" stroke-width="1" />
<line x1="110" y1="86" x2="110" y2="336" stroke="#9ca3af" stroke-width="1" />
<line x1="110" y1="336.0" x2="720" y2="336.0" stroke="#e5e7eb" stroke-width="1" />
<text x="100.0" y="340.0" font-family="Arial, sans-serif" font-size="11" font-weight="400" text-anchor="end" fill="#1f2937">0</text>
<line x1="110" y1="273.5" x2="720" y2="273.5" stroke="#e5e7eb" stroke-width="1" />
<text x="100.0" y="277.5" font-family="Arial, sans-serif" font-size="11" font-weight="400" text-anchor="end" fill="#1f2937">30</text>
<line x1="110" y1="211.0" x2="720" y2="211.0" stroke="#e5e7eb" stroke-width="1" />
<text x="100.0" y="215.0" font-family="Arial, sans-serif" font-size="11" font-weight="400" text-anchor="end" fill="#1f2937">60</text>
<line x1="110" y1="148.5" x2="720" y2="148.5" stroke="#e5e7eb" stroke-width="1" />
<text x="100.0" y="152.5" font-family="Arial, sans-serif" font-size="11" font-weight="400" text-anchor="end" fill="#1f2937">90</text>
<line x1="110" y1="86.0" x2="720" y2="86.0" stroke="#e5e7eb" stroke-width="1" />
<text x="100.0" y="90.0" font-family="Arial, sans-serif" font-size="11" font-weight="400" text-anchor="end" fill="#1f2937">120</text>
<rect x="146.0" y="317.8" width="42.0" height="18.2" fill="#9ca3af" rx="2" />
<text x="167.0" y="311.8" font-family="Arial, sans-serif" font-size="11" font-weight="700" text-anchor="middle" fill="#1f2937">8</text>
<rect x="200.0" y="322.4" width="42.0" height="13.6" fill="#60a5fa" rx="2" />
<text x="221.0" y="316.4" font-family="Arial, sans-serif" font-size="11" font-weight="700" text-anchor="middle" fill="#1f2937">6</text>
<rect x="254.0" y="331.5" width="42.0" height="4.5" fill="#16a34a" rx="2" />
<text x="275.0" y="325.5" font-family="Arial, sans-serif" font-size="11" font-weight="700" text-anchor="middle" fill="#1f2937">2</text>
<text x="216.0" y="365.0" font-family="Arial, sans-serif" font-size="12" font-weight="400" text-anchor="middle" fill="#1f2937">MRR 8x8</text>
<rect x="451.0" y="86.0" width="42.0" height="250.0" fill="#9ca3af" rx="2" />
<text x="472.0" y="80.0" font-family="Arial, sans-serif" font-size="11" font-weight="700" text-anchor="middle" fill="#1f2937">110</text>
<rect x="505.0" y="126.9" width="42.0" height="209.1" fill="#60a5fa" rx="2" />
<text x="526.0" y="120.9" font-family="Arial, sans-serif" font-size="11" font-weight="700" text-anchor="middle" fill="#1f2937">92</text>
<rect x="559.0" y="140.5" width="42.0" height="195.5" fill="#16a34a" rx="2" />
<text x="580.0" y="134.5" font-family="Arial, sans-serif" font-size="11" font-weight="700" text-anchor="middle" fill="#1f2937">86</text>
<text x="521.0" y="365.0" font-family="Arial, sans-serif" font-size="12" font-weight="400" text-anchor="middle" fill="#1f2937">MRR 16x16</text>
<rect x="505.0" y="28.0" width="14.0" height="14.0" fill="#9ca3af" rx="2" />
<text x="525.0" y="40.0" font-family="Arial, sans-serif" font-size="12" font-weight="400" text-anchor="start" fill="#1f2937">H010</text>
<rect x="575.0" y="28.0" width="14.0" height="14.0" fill="#60a5fa" rx="2" />
<text x="595.0" y="40.0" font-family="Arial, sans-serif" font-size="12" font-weight="400" text-anchor="start" fill="#1f2937">H013</text>
<rect x="645.0" y="28.0" width="14.0" height="14.0" fill="#16a34a" rx="2" />
<text x="665.0" y="40.0" font-family="Arial, sans-serif" font-size="12" font-weight="400" text-anchor="start" fill="#1f2937">H015</text>
</svg>
